<svg version="1.1" xmlns="http://www.w3.org/2000/svg" viewBox="0 0 421.3888854980469 478.3333282470703" width="421.3888854980469" height="478.3333282470703" filter="invert(93%) hue-rotate(180deg)" class="excalidraw-svg"><!-- svg-source:excalidraw --><metadata></metadata><defs><style class="style-fonts">
      </style></defs><rect x="0" y="0" width="421.3888854980469" height="478.3333282470703" fill="#ffffff"></rect><g stroke-linecap="round" transform="translate(150.27774047851562 10) rotate(0 62.5 58.33332824707031)"><path d="M29.17 0 C56.56 -1.01, 81.1 0.09, 95.83 0 M29.17 0 C55.16 -0.16, 81.66 -0.7, 95.83 0 M95.83 0 C116.56 -0.75, 125.05 8.98, 125 29.17 M95.83 0 C113.23 1.35, 123.63 11.57, 125 29.17 M125 29.17 C125.1 45.49, 124.4 62.16, 125 87.5 M125 29.17 C123.84 44.28, 124.4 59.17, 125 87.5 M125 87.5 C123.78 107.7, 115.96 115.56, 95.83 116.67 M125 87.5 C125.08 105.37, 114.95 116.25, 95.83 116.67 M95.83 116.67 C75.11 118.05, 53.82 117.97, 29.17 116.67 M95.83 116.67 C77.4 116.71, 57.56 115.6, 29.17 116.67 M29.17 116.67 C10.48 118.59, 0.84 106.42, 0 87.5 M29.17 116.67 C9.25 116.87, 0.75 106.52, 0 87.5 M0 87.5 C-0.77 64.85, 0.5 45.69, 0 29.17 M0 87.5 C0.2 75.09, -0.53 62.58, 0 29.17 M0 29.17 C0.35 8.7, 11.26 1.67, 29.17 0 M0 29.17 C-2.28 10.37, 9.12 0.02, 29.17 0" stroke="#1e1e1e" stroke-width="2" fill="none"></path></g><g stroke-linecap="round" transform="translate(286.3888854980469 172.50001525878906) rotate(0 62.5 58.33332824707031)"><path d="M29.17 0 C45.2 0.09, 62.37 2.27, 95.83 0 M29.17 0 C49.8 0.19, 68.42 -1.17, 95.83 0 M95.83 0 C113.63 0.96, 126.18 8.83, 125 29.17 M95.83 0 C114.1 0.87, 127.22 10.69, 125 29.17 M125 29.17 C125.53 44.75, 126.14 61.35, 125 87.5 M125 29.17 C125.08 42.06, 124.01 54.94, 125 87.5 M125 87.5 C126.56 107.99, 116.24 116.25, 95.83 116.67 M125 87.5 C126.99 107.35, 114.1 118.44, 95.83 116.67 M95.83 116.67 C69.74 116.87, 45.21 118.76, 29.17 116.67 M95.83 116.67 C79.36 118.07, 64.05 117.37, 29.17 116.67 M29.17 116.67 C10.55 116.89, -1.17 108.7, 0 87.5 M29.17 116.67 C8.65 118.77, -1.79 105.82, 0 87.5 M0 87.5 C1.54 73.98, 0.81 62.37, 0 29.17 M0 87.5 C-0.12 66.79, 0.42 44.32, 0 29.17 M0 29.17 C-1.21 9.86, 10.46 -1.37, 29.17 0 M0 29.17 C2.18 11.94, 11.82 -2.13, 29.17 0" stroke="#1e1e1e" stroke-width="2" fill="none"></path></g><g stroke-linecap="round" transform="translate(10 175.2777557373047) rotate(0 62.5 58.33332824707031)"><path d="M29.17 0 C45.37 1.23, 60.84 -1.31, 95.83 0 M29.17 0 C49.59 -0.52, 68.45 -0.64, 95.83 0 M95.83 0 C115.35 0.47, 125.97 8.54, 125 29.17 M95.83 0 C114.47 -2.1, 127.06 9.04, 125 29.17 M125 29.17 C124.27 41.54, 123.98 51.95, 125 87.5 M125 29.17 C125.13 43.12, 125.29 56.84, 125 87.5 M125 87.5 C123.29 107.2, 113.94 117.42, 95.83 116.67 M125 87.5 C124.75 107.77, 115.48 116.75, 95.83 116.67 M95.83 116.67 C75.73 116.94, 52.78 119.13, 29.17 116.67 M95.83 116.67 C76.45 115.42, 58.02 116.41, 29.17 116.67 M29.17 116.67 C11.16 116.03, -1.92 108.5, 0 87.5 M29.17 116.67 C11.9 116.14, 0.33 108.23, 0 87.5 M0 87.5 C0.38 76.35, -0.11 61.88, 0 29.17 M0 87.5 C0.47 75.18, -0.19 63.11, 0 29.17 M0 29.17 C1.89 8.5, 9.2 -1.33, 29.17 0 M0 29.17 C-2.17 7.56, 8.84 2.02, 29.17 0" stroke="#1e1e1e" stroke-width="2" fill="none"></path></g><g stroke-linecap="round" transform="translate(150.27780151367188 351.6666717529297) rotate(0 62.5 58.33332824707031)"><path d="M29.17 0 C47.44 1.1, 65.19 -0.04, 95.83 0 M29.17 0 C43.72 -0.32, 59.83 -0.64, 95.83 0 M95.83 0 C116.6 0.37, 123.52 10.45, 125 29.17 M95.83 0 C117.15 0.67, 124.06 8.7, 125 29.17 M125 29.17 C126.92 45.1, 124.87 60.74, 125 87.5 M125 29.17 C124.35 46.68, 125.52 65.11, 125 87.5 M125 87.5 C124.91 108.1, 114.41 117.61, 95.83 116.67 M125 87.5 C127.05 107.73, 117.07 115.07, 95.83 116.67 M95.83 116.67 C79.43 116.24, 63.1 116.32, 29.17 116.67 M95.83 116.67 C79.99 116.47, 64.88 117.11, 29.17 116.67 M29.17 116.67 C8.92 118.39, -1.5 108.06, 0 87.5 M29.17 116.67 C9.7 116.41, -0.73 107.04, 0 87.5 M0 87.5 C1.79 65.7, 0.86 43.08, 0 29.17 M0 87.5 C-0.22 66.86, -0.53 45.47, 0 29.17 M0 29.17 C1.5 11.64, 10.25 -1.8, 29.17 0 M0 29.17 C-0.79 10.07, 10.32 -0.18, 29.17 0" stroke="#1e1e1e" stroke-width="2" fill="none"></path></g><g stroke-linecap="round"><g transform="translate(375.918601133278 300.1666717529297) rotate(0 -43.79099151249713 64.6306589305695)"><path d="M-0.61 0.69 C-4 12.91, -5.41 52.24, -20.08 73.45 C-34.75 94.67, -76.97 118.88, -88.62 127.99 M1.27 0.01 C-2.2 12.42, -5.43 53.46, -20.46 75 C-35.48 96.53, -77.28 120.21, -88.86 129.25" stroke="#1e1e1e" stroke-width="2" fill="none"></path></g><g transform="translate(375.918601133278 300.1666717529297) rotate(0 -43.79099151249713 64.6306589305695)"><path d="M-74.28 108.94 C-77.78 117.21, -83.62 123.64, -88.86 129.25 M-74.28 108.94 C-78.71 114.29, -83.33 120.43, -88.86 129.25" stroke="#1e1e1e" stroke-width="2" fill="none"></path></g><g transform="translate(375.918601133278 300.1666717529297) rotate(0 -43.79099151249713 64.6306589305695)"><path d="M-64.63 123.06 C-71.26 126.74, -80.2 128.62, -88.86 129.25 M-64.63 123.06 C-71.83 124.32, -79.25 126.36, -88.86 129.25" stroke="#1e1e1e" stroke-width="2" fill="none"></path></g></g><mask></mask><g stroke-linecap="round"><g transform="translate(139.27780151367188 432.32101715822705) rotate(0 -43.137444680066736 -64.59948182935362)"><path d="M0.91 0.39 C-9.4 -6.46, -47.09 -20.66, -61.77 -42.32 C-76.45 -63.99, -83.21 -114.94, -87.18 -129.59 M-0.08 -0.45 C-10.03 -7.01, -45.5 -19.54, -59.61 -40.86 C-73.72 -62.18, -80.5 -113.6, -84.72 -128.38" stroke="#1e1e1e" stroke-width="2" fill="none"></path></g><g transform="translate(139.27780151367188 432.32101715822705) rotate(0 -43.137444680066736 -64.59948182935362)"><path d="M-71.41 -107.23 C-74.64 -115.36, -79.61 -121.51, -84.72 -128.38 M-71.41 -107.23 C-75.63 -113.71, -78.98 -120.18, -84.72 -128.38" stroke="#1e1e1e" stroke-width="2" fill="none"></path></g><g transform="translate(139.27780151367188 432.32101715822705) rotate(0 -43.137444680066736 -64.59948182935362)"><path d="M-88.12 -103.62 C-86.18 -112.99, -86.02 -120.25, -84.72 -128.38 M-88.12 -103.62 C-87.65 -111, -86.28 -118.5, -84.72 -128.38" stroke="#1e1e1e" stroke-width="2" fill="none"></path></g></g><mask></mask><g stroke-linecap="round"><g transform="translate(46.80916765826527 164.2777557373047) rotate(0 46.01952854818312 -52.31621642345442)"><path d="M-0.6 -0.65 C4.23 -12.58, 12.57 -54.36, 28.11 -71.66 C43.65 -88.97, 81.84 -98.76, 92.64 -104.48 M1.29 1.62 C6.05 -10.65, 12.15 -55.49, 27.27 -73.46 C42.38 -91.44, 80.94 -100.97, 91.96 -106.25" stroke="#1e1e1e" stroke-width="2" fill="none"></path></g><g transform="translate(46.80916765826527 164.2777557373047) rotate(0 46.01952854818312 -52.31621642345442)"><path d="M72.98 -89.97 C76.24 -93.26, 82.69 -97.03, 91.96 -106.25 M72.98 -89.97 C81.28 -95.5, 87.94 -103.31, 91.96 -106.25" stroke="#1e1e1e" stroke-width="2" fill="none"></path></g><g transform="translate(46.80916765826527 164.2777557373047) rotate(0 46.01952854818312 -52.31621642345442)"><path d="M66.96 -105.98 C71.58 -105.58, 79.4 -105.7, 91.96 -106.25 M66.96 -105.98 C77.68 -105.21, 86.7 -106.75, 91.96 -106.25" stroke="#1e1e1e" stroke-width="2" fill="none"></path></g></g><mask></mask><g stroke-linecap="round"><g transform="translate(286.2777404785156 46.6731226202844) rotate(0 40.30067647873585 57.88964007074486)"><path d="M-0.31 -0.64 C9.22 7.16, 43.01 28.7, 56.55 47.98 C70.09 67.25, 77 104, 80.91 115.01 M1.73 1.64 C11.69 10.17, 45.64 30.48, 58.81 49.61 C71.99 68.74, 77.17 105.57, 80.78 116.42" stroke="#1e1e1e" stroke-width="2" fill="none"></path></g><g transform="translate(286.2777404785156 46.6731226202844) rotate(0 40.30067647873585 57.88964007074486)"><path d="M66.85 95.65 C69.43 99.38, 74.23 107.93, 80.78 116.42 M66.85 95.65 C71.25 102.55, 75.27 108.96, 80.78 116.42" stroke="#1e1e1e" stroke-width="2" fill="none"></path></g><g transform="translate(286.2777404785156 46.6731226202844) rotate(0 40.30067647873585 57.88964007074486)"><path d="M83.46 91.56 C81.98 96.25, 82.68 105.82, 80.78 116.42 M83.46 91.56 C82.64 99.64, 81.42 107.34, 80.78 116.42" stroke="#1e1e1e" stroke-width="2" fill="none"></path></g></g><mask></mask><g stroke-linecap="round"><g transform="translate(334.11313112609025 161.50001525878912) rotate(0 -23.59647157829222 -35.72588767617225)"><path d="M0.18 0.7 C-1.98 -5.43, -4.54 -24.51, -12.46 -36.66 C-20.38 -48.8, -41.64 -66.07, -47.37 -72.15" stroke="#1e1e1e" stroke-width="2.5" fill="none" stroke-dasharray="1.5 8"></path></g><g transform="translate(334.11313112609025 161.50001525878912) rotate(0 -23.59647157829222 -35.72588767617225)"><path d="M-24.39 -62.29 C-31.06 -65.98, -41.54 -68.19, -47.37 -72.15" stroke="#1e1e1e" stroke-width="2.5" fill="none" stroke-dasharray="1.5 6"></path></g><g transform="translate(334.11313112609025 161.50001525878912) rotate(0 -23.59647157829222 -35.72588767617225)"><path d="M-36.1 -49.83 C-38.8 -57.78, -45.29 -64.23, -47.37 -72.15" stroke="#1e1e1e" stroke-width="2.5" fill="none" stroke-dasharray="1.5 6"></path></g></g><mask></mask><g stroke-linecap="round"><g transform="translate(139.27774047851565 89.8619976262384) rotate(0 -34.15959525525764 37.315445724371415)"><path d="M-1.07 0.08 C-8.78 3.86, -36.32 10.8, -47.35 23.21 C-58.39 35.63, -63.98 65.88, -67.25 74.55" stroke="#1e1e1e" stroke-width="2.5" fill="none" stroke-dasharray="1.5 8"></path></g><g transform="translate(139.27774047851565 89.8619976262384) rotate(0 -34.15959525525764 37.315445724371415)"><path d="M-68.9 49.61 C-68.33 54.73, -66.64 59.48, -67.25 74.55" stroke="#1e1e1e" stroke-width="2.5" fill="none" stroke-dasharray="1.5 6"></path></g><g transform="translate(139.27774047851565 89.8619976262384) rotate(0 -34.15959525525764 37.315445724371415)"><path d="M-52.48 54.38 C-55.35 58.36, -57.09 62.12, -67.25 74.55" stroke="#1e1e1e" stroke-width="2.5" fill="none" stroke-dasharray="1.5 6"></path></g></g><mask></mask><g stroke-linecap="round"><g transform="translate(81.64024483067442 302.9444122314453) rotate(0 28.633014269408335 51.76291495325923)"><path d="M0.26 -1.14 C2.55 8.93, 5.21 43.71, 14.67 61.35 C24.12 78.99, 49.66 97.35, 57 104.67" stroke="#1e1e1e" stroke-width="2.5" fill="none" stroke-dasharray="1.5 8"></path></g><g transform="translate(81.64024483067442 302.9444122314453) rotate(0 28.633014269408335 51.76291495325923)"><path d="M33.68 95.66 C40.66 99.54, 51.54 101.36, 57 104.67" stroke="#1e1e1e" stroke-width="2.5" fill="none" stroke-dasharray="1.5 6"></path></g><g transform="translate(81.64024483067442 302.9444122314453) rotate(0 28.633014269408335 51.76291495325923)"><path d="M44.93 82.78 C47.75 91.55, 54.39 98.24, 57 104.67" stroke="#1e1e1e" stroke-width="2.5" fill="none" stroke-dasharray="1.5 6"></path></g></g><mask></mask><g stroke-linecap="round"><g transform="translate(286.2778015136719 401.8568639888682) rotate(0 31.04641975639912 -51.44179878678512)"><path d="M0.06 -0.45 C8.27 -7.04, 38.71 -22.03, 49.04 -39.03 C59.37 -56.02, 59.84 -92.12, 62.03 -102.43" stroke="#1e1e1e" stroke-width="2.5" fill="none" stroke-dasharray="1.5 8"></path></g><g transform="translate(286.2778015136719 401.8568639888682) rotate(0 31.04641975639912 -51.44179878678512)"><path d="M67.7 -78.08 C65.24 -86.07, 64.33 -90.46, 62.03 -102.43" stroke="#1e1e1e" stroke-width="2.5" fill="none" stroke-dasharray="1.5 6"></path></g><g transform="translate(286.2778015136719 401.8568639888682) rotate(0 31.04641975639912 -51.44179878678512)"><path d="M50.72 -80.14 C53.09 -87.55, 56.99 -91.36, 62.03 -102.43" stroke="#1e1e1e" stroke-width="2.5" fill="none" stroke-dasharray="1.5 6"></path></g></g><mask></mask></svg>