<svg version="1.1" xmlns="http://www.w3.org/2000/svg" viewBox="0 0 490.8334045410156 409.58335876464844" width="490.8334045410156" height="409.58335876464844" filter="invert(93%) hue-rotate(180deg)" class="excalidraw-svg"><!-- svg-source:excalidraw --><metadata></metadata><defs><style class="style-fonts">
      </style></defs><rect x="0" y="0" width="490.8334045410156" height="409.58335876464844" fill="#ffffff"></rect><g stroke-linecap="round" transform="translate(119.72225952148438 10) rotate(0 56.9444580078125 50.69444274902344)"><path d="M71.25 12.75 C80.65 23.81, 90.81 30.67, 99.64 38.25 M71.25 12.75 C77.73 18.58, 84.17 24.63, 99.64 38.25 M99.64 38.25 C114.99 49.36, 115.46 49.41, 99.64 63.75 M99.64 38.25 C116.16 51.52, 115.82 50.49, 99.64 63.75 M99.64 63.75 C88.66 75.28, 78.33 82.08, 71.25 88.64 M99.64 63.75 C89.06 72.65, 80.19 80.45, 71.25 88.64 M71.25 88.64 C58.49 100.45, 58.75 101.91, 42.75 88.64 M71.25 88.64 C56.9 100.9, 55.13 99.58, 42.75 88.64 M42.75 88.64 C34.53 79.97, 27.42 75.69, 14.25 63.75 M42.75 88.64 C34.72 82.59, 27.99 76.41, 14.25 63.75 M14.25 63.75 C-0.25 52.7, 1.85 52.96, 14.25 38.25 M14.25 63.75 C1.91 50.57, 1.73 52.34, 14.25 38.25 M14.25 38.25 C18.99 31.16, 28.96 28.23, 42.75 12.75 M14.25 38.25 C23.38 28.49, 35.1 20.95, 42.75 12.75 M42.75 12.75 C57.37 -0.98, 55.81 -0.3, 71.25 12.75 M42.75 12.75 C54.96 -2.07, 59.01 -1.87, 71.25 12.75" stroke="#1e1e1e" stroke-width="2" fill="none"></path></g><g stroke-linecap="round" transform="translate(10 189.86109924316406) rotate(0 56.9444580078125 50.69444274902344)"><path d="M71.25 12.75 C84.26 24.11, 92.62 33.84, 99.64 38.25 M71.25 12.75 C81.62 22.48, 90.96 30.79, 99.64 38.25 M99.64 38.25 C112.3 49.24, 112.04 52.42, 99.64 63.75 M99.64 38.25 C115.28 51.42, 112.76 49.63, 99.64 63.75 M99.64 63.75 C93.07 68.97, 85.22 76.84, 71.25 88.64 M99.64 63.75 C88.95 73.28, 80.36 81.47, 71.25 88.64 M71.25 88.64 C57.77 102.69, 57.2 100.77, 42.75 88.64 M71.25 88.64 C58.15 99.25, 55.87 103.38, 42.75 88.64 M42.75 88.64 C38.81 83.83, 31.09 76.93, 14.25 63.75 M42.75 88.64 C36.04 84.32, 31.5 78.13, 14.25 63.75 M14.25 63.75 C-0.24 52.87, 0.1 52.05, 14.25 38.25 M14.25 63.75 C2.1 49.61, -1.95 51.63, 14.25 38.25 M14.25 38.25 C21.35 30.74, 27.39 26.79, 42.75 12.75 M14.25 38.25 C21.01 31.33, 29.2 26.25, 42.75 12.75 M42.75 12.75 C55.42 -2, 57.36 -0.71, 71.25 12.75 M42.75 12.75 C54.77 -0.41, 56.44 -1.55, 71.25 12.75" stroke="#1e1e1e" stroke-width="2" fill="none"></path></g><g stroke-linecap="round" transform="translate(262.7778015136719 298.19447326660156) rotate(0 56.9444580078125 50.69444274902344)"><path d="M71.25 12.75 C79.56 20.53, 86.04 24.69, 99.64 38.25 M71.25 12.75 C80.19 21.91, 90.72 30.91, 99.64 38.25 M99.64 38.25 C112.83 52.38, 112.49 49.73, 99.64 63.75 M99.64 38.25 C116.14 50.32, 114.24 50.82, 99.64 63.75 M99.64 63.75 C88.67 73.66, 81.45 79.66, 71.25 88.64 M99.64 63.75 C91.8 71.93, 82.78 78.75, 71.25 88.64 M71.25 88.64 C57.74 99.67, 58.35 99.39, 42.75 88.64 M71.25 88.64 C58.64 100.55, 58.64 103.17, 42.75 88.64 M42.75 88.64 C34.35 80.84, 25.24 71.8, 14.25 63.75 M42.75 88.64 C33.98 81.59, 23.61 71.95, 14.25 63.75 M14.25 63.75 C-0.79 50.61, -0.42 52.13, 14.25 38.25 M14.25 63.75 C0.47 52.45, 0.23 50.56, 14.25 38.25 M14.25 38.25 C21.14 32.5, 26.21 26.33, 42.75 12.75 M14.25 38.25 C22.21 30.12, 30.55 22.98, 42.75 12.75 M42.75 12.75 C57.92 0.96, 58.45 0.82, 71.25 12.75 M42.75 12.75 C55.01 -0.48, 57.92 -2.17, 71.25 12.75" stroke="#1e1e1e" stroke-width="2" fill="none"></path></g><g stroke-linecap="round" transform="translate(366.9444885253906 119.02781677246094) rotate(0 56.9444580078125 50.69444274902344)"><path d="M71.25 12.75 C81.62 22.33, 93.07 30.71, 99.64 38.25 M71.25 12.75 C79.35 18.89, 86.89 26.94, 99.64 38.25 M99.64 38.25 C115.71 52.8, 115.35 49.05, 99.64 63.75 M99.64 38.25 C115.06 49.71, 116.05 52.14, 99.64 63.75 M99.64 63.75 C93.09 68.56, 85.52 75.28, 71.25 88.64 M99.64 63.75 C88.89 73.59, 78.2 83.41, 71.25 88.64 M71.25 88.64 C55.92 100.36, 55.41 102.41, 42.75 88.64 M71.25 88.64 C56.26 100.69, 56.9 102.36, 42.75 88.64 M42.75 88.64 C32.9 81.52, 28.21 75.07, 14.25 63.75 M42.75 88.64 C33.01 78.19, 21.14 69.48, 14.25 63.75 M14.25 63.75 C0.04 52.06, -0.42 50.56, 14.25 38.25 M14.25 63.75 C0.23 52.1, 2.27 49.78, 14.25 38.25 M14.25 38.25 C23.69 28.94, 34.32 17.46, 42.75 12.75 M14.25 38.25 C20.93 32.31, 29.5 25.14, 42.75 12.75 M42.75 12.75 C57.02 -1.91, 57.68 -0.89, 71.25 12.75 M42.75 12.75 C57.6 -2.19, 55.44 0.6, 71.25 12.75" stroke="#1e1e1e" stroke-width="2" fill="none"></path></g><g stroke-linecap="round" transform="translate(347.5000305175781 105.13890075683594) rotate(0 56.9444580078125 50.69444274902344)"><path d="M71.25 12.75 C77.48 20.66, 87.25 26.05, 99.64 38.25 M71.25 12.75 C79.11 20.59, 87.15 27.32, 99.64 38.25 M99.64 38.25 C114.41 49.05, 112.24 50.84, 99.64 63.75 M99.64 38.25 C116.09 52.46, 113.68 53.2, 99.64 63.75 M99.64 63.75 C92.47 70.38, 84.34 74.28, 71.25 88.64 M99.64 63.75 C90.43 70.79, 83.19 77.73, 71.25 88.64 M71.25 88.64 C56.77 101.58, 56.64 100.68, 42.75 88.64 M71.25 88.64 C57.33 101.15, 55.68 100.16, 42.75 88.64 M42.75 88.64 C31.34 79.95, 20.05 69.81, 14.25 63.75 M42.75 88.64 C35.3 81.26, 26.54 73.45, 14.25 63.75 M14.25 63.75 C0.41 50.12, -1.28 49.31, 14.25 38.25 M14.25 63.75 C-0.92 51.45, 0.47 52.56, 14.25 38.25 M14.25 38.25 C25.04 30.13, 33.96 21.52, 42.75 12.75 M14.25 38.25 C25.32 28.38, 35.39 18.42, 42.75 12.75 M42.75 12.75 C57.38 -0.61, 56.49 0.2, 71.25 12.75 M42.75 12.75 C54.85 1.69, 58.32 -1.05, 71.25 12.75" stroke="#1e1e1e" stroke-width="2" fill="none"></path></g></svg>