<svg version="1.1" xmlns="http://www.w3.org/2000/svg" viewBox="0 0 1211.5292201809784 628.3169685172504" width="1211.5292201809784" height="628.3169685172504" filter="invert(93%) hue-rotate(180deg)" class="excalidraw-svg"><!-- svg-source:excalidraw --><metadata></metadata><defs><style class="style-fonts">
      </style></defs><rect x="0" y="0" width="1211.5292201809784" height="628.3169685172504" fill="#ffffff"></rect><g stroke-linecap="round" transform="translate(151.975341796875 532.9003120231098) rotate(0 51.388885498046875 42.361114501953125)"><path d="M21.18 0 C43.35 1.05, 65.09 0.88, 81.6 0 M21.18 0 C44.46 0.37, 68.18 -1.43, 81.6 0 M81.6 0 C93.9 0.99, 101.07 6.93, 102.78 21.18 M81.6 0 C96.74 -1.62, 103.06 8.12, 102.78 21.18 M102.78 21.18 C103.45 30.45, 103.66 44, 102.78 63.54 M102.78 21.18 C102.7 31.31, 102.98 41.33, 102.78 63.54 M102.78 63.54 C101.96 77.41, 96.87 86.33, 81.6 84.72 M102.78 63.54 C101.49 77.05, 95.64 87.01, 81.6 84.72 M81.6 84.72 C68.49 84.08, 52.48 84.31, 21.18 84.72 M81.6 84.72 C65.28 84.86, 50.07 85.07, 21.18 84.72 M21.18 84.72 C8.88 86.45, -0.2 76.13, 0 63.54 M21.18 84.72 C8.67 83.39, 0.4 79.43, 0 63.54 M0 63.54 C-0.21 49.16, 1.49 36.85, 0 21.18 M0 63.54 C0.79 55.13, -0.14 43.85, 0 21.18 M0 21.18 C0.94 5.24, 8.84 1.71, 21.18 0 M0 21.18 C-1.93 7.45, 6.3 -0.1, 21.18 0" stroke="#1e1e1e" stroke-width="2" fill="none"></path></g><g stroke-linecap="round" transform="translate(288.0864562988281 533.5947395133442) rotate(0 51.388885498046875 42.361114501953125)"><path d="M21.18 0 C44.99 0.86, 68.01 -2.15, 81.6 0 M21.18 0 C44.13 -1.44, 67.4 -0.06, 81.6 0 M81.6 0 C94.01 -0.13, 103.67 5.66, 102.78 21.18 M81.6 0 C96 1.06, 101.66 7.99, 102.78 21.18 M102.78 21.18 C103.59 35.7, 101.56 46.92, 102.78 63.54 M102.78 21.18 C103.03 30.71, 102.36 39.45, 102.78 63.54 M102.78 63.54 C103.93 79.27, 94.6 84.19, 81.6 84.72 M102.78 63.54 C102.7 79.95, 94.42 84.04, 81.6 84.72 M81.6 84.72 C60.28 83.66, 37.51 83.63, 21.18 84.72 M81.6 84.72 C63.53 85.2, 46.92 85.69, 21.18 84.72 M21.18 84.72 C6.86 83.19, 1.4 76.51, 0 63.54 M21.18 84.72 C7.47 86.49, 0.02 75.55, 0 63.54 M0 63.54 C1.22 46.94, -1.45 31.94, 0 21.18 M0 63.54 C-0.57 49.92, 0.21 37.27, 0 21.18 M0 21.18 C1.78 8.77, 5.38 0.34, 21.18 0 M0 21.18 C-0.76 6.96, 9.21 -1.67, 21.18 0" stroke="#1e1e1e" stroke-width="2" fill="none"></path></g><g stroke-linecap="round" transform="translate(545.725337101863 323.87241895670354) rotate(0 51.388885498046875 42.361114501953125)"><path d="M21.18 0 C45.68 -2.1, 68.21 -1.45, 81.6 0 M21.18 0 C43.9 1.03, 67.58 0.47, 81.6 0 M81.6 0 C96.61 -1.4, 103.03 7.98, 102.78 21.18 M81.6 0 C94.6 0.93, 102.94 7.64, 102.78 21.18 M102.78 21.18 C101.61 30.7, 101.27 40.71, 102.78 63.54 M102.78 21.18 C102.47 34.71, 103.46 49.3, 102.78 63.54 M102.78 63.54 C101.66 77.13, 95.65 86.71, 81.6 84.72 M102.78 63.54 C101.48 76.98, 97.05 86.57, 81.6 84.72 M81.6 84.72 C65.65 83.7, 51.24 83.11, 21.18 84.72 M81.6 84.72 C63.32 85.81, 43.13 84.18, 21.18 84.72 M21.18 84.72 C8.46 83.57, 0.35 79.2, 0 63.54 M21.18 84.72 C7.08 82.61, 1.47 76.97, 0 63.54 M0 63.54 C-1.81 53.5, -0.25 46.27, 0 21.18 M0 63.54 C0.6 45.82, 1.02 30.77, 0 21.18 M0 21.18 C-1.68 7.4, 6.4 -0.09, 21.18 0 M0 21.18 C2.15 5.39, 6 0.95, 21.18 0" stroke="#1e1e1e" stroke-width="2" fill="none"></path></g><g stroke-linecap="round" transform="translate(10 532.5144036843512) rotate(0 51.388885498046875 42.361114501953125)"><path d="M21.18 0 C45.07 -0.54, 67.19 -0.71, 81.6 0 M21.18 0 C33.1 -0.36, 47.17 -1, 81.6 0 M81.6 0 C95.97 0.92, 101.81 7.86, 102.78 21.18 M81.6 0 C95.88 0.58, 101.19 7.88, 102.78 21.18 M102.78 21.18 C100.84 37.05, 102.94 53.5, 102.78 63.54 M102.78 21.18 C103.18 36.12, 102.04 49.18, 102.78 63.54 M102.78 63.54 C102.71 79.65, 94.59 84.13, 81.6 84.72 M102.78 63.54 C104.11 79.51, 94.57 85.08, 81.6 84.72 M81.6 84.72 C65.65 83.1, 50.28 83.94, 21.18 84.72 M81.6 84.72 C61.1 84.48, 41.5 84.67, 21.18 84.72 M21.18 84.72 C7.41 86.26, 0.02 75.83, 0 63.54 M21.18 84.72 C8.53 84.03, -1.87 78.92, 0 63.54 M0 63.54 C0.32 54.6, 2.27 42.57, 0 21.18 M0 63.54 C0.69 55.68, -1.04 46.27, 0 21.18 M0 21.18 C-0.66 6.97, 8.93 -1.45, 21.18 0 M0 21.18 C-1.06 8.01, 7.21 -0.15, 21.18 0" stroke="#1e1e1e" stroke-width="2" fill="none"></path></g><g stroke-linecap="round" transform="translate(185.5308342756599 268.96355327148217) rotate(0 75.69442749023438 65.97222900390625)"><path d="M95 16.5 C105.16 22.57, 109.6 29.06, 132.39 49.5 M95 16.5 C108.22 27.35, 120.97 40.04, 132.39 49.5 M132.39 49.5 C150.42 66.8, 151.53 66.5, 132.39 82.5 M132.39 49.5 C149.8 66.82, 153.12 64.48, 132.39 82.5 M132.39 82.5 C121.85 92.45, 111.35 100.56, 95 115.44 M132.39 82.5 C121.27 92.01, 111.04 102.74, 95 115.44 M95 115.44 C74.87 131.35, 77.16 133.55, 57 115.44 M95 115.44 C74.86 132.31, 75.13 130.99, 57 115.44 M57 115.44 C47.48 106.06, 37.98 99.84, 19 82.5 M57 115.44 C43.05 101.84, 27.84 90.46, 19 82.5 M19 82.5 C0.02 64.16, 1.28 65.4, 19 49.5 M19 82.5 C-1.87 67.26, -1.37 64.19, 19 49.5 M19 49.5 C30.86 40.05, 36.95 32.98, 57 16.5 M19 49.5 C25.81 42.45, 34.25 35.34, 57 16.5 M57 16.5 C77.87 -1.45, 75.08 0.83, 95 16.5 M57 16.5 C76.15 -0.15, 73.78 -0.59, 95 16.5" stroke="#1e1e1e" stroke-width="2" fill="none"></path></g><g stroke-linecap="round"><g transform="translate(77.21569531948478 530.7190932092471) rotate(0 69.0261682516666 -77.94395236226549)"><path d="M-0.73 -1.06 C22.15 -27.09, 113.74 -129.29, 136.65 -155.07 M1.09 0.99 C24.38 -24.87, 115.79 -130.97, 138.78 -156.88" stroke="#1e1e1e" stroke-width="2" fill="none"></path></g></g><mask></mask><g stroke-linecap="round"><g transform="translate(208.09910843957755 521.9003120231098) rotate(0 16.818335516209395 -61.60514173826752)"><path d="M-1.09 0.59 C4.46 -19.86, 26.69 -102.94, 32.56 -123.8 M0.54 -0.14 C6.51 -20.31, 29.21 -101.71, 34.73 -122.3" stroke="#1e1e1e" stroke-width="2" fill="none"></path></g></g><mask></mask><g stroke-linecap="round"><g transform="translate(330.02580319112195 522.5947395133442) rotate(0 -18.840437664509423 -67.20649521408129)"><path d="M-1.03 -0.08 C-7.12 -22.56, -31.48 -112.19, -37.65 -134.34 M0.64 -1.16 C-5.47 -23.57, -31.76 -110.94, -38.32 -133.24" stroke="#1e1e1e" stroke-width="2" fill="none"></path></g></g><mask></mask><g stroke-linecap="round"><g transform="translate(547.207164797 318.13646402837696) rotate(0 -44.78071964956854 -42.02270516809011)"><path d="M0.53 -0.84 C-14.17 -14.75, -74.14 -69.75, -89.23 -83.54 M-0.65 1.33 C-15.4 -12.93, -75.03 -70.87, -90.09 -85.37" stroke="#1e1e1e" stroke-width="2" fill="none"></path></g></g><mask></mask><g stroke-linecap="round" transform="translate(336.1614623488041 127.43656114664486) rotate(0 75.69442749023438 65.97222900390625)"><path d="M95 16.5 C105.25 25.5, 111.26 30.18, 132.39 49.5 M95 16.5 C104.67 26.53, 114.95 34.83, 132.39 49.5 M132.39 49.5 C151.53 67.22, 152.79 64.91, 132.39 82.5 M132.39 49.5 C151.06 68.28, 150.95 68.3, 132.39 82.5 M132.39 82.5 C122.64 89.74, 110.48 102.28, 95 115.44 M132.39 82.5 C120.72 92.15, 107.16 103, 95 115.44 M95 115.44 C77.98 131.86, 75.64 130.13, 57 115.44 M95 115.44 C74.01 133.3, 75.05 130.26, 57 115.44 M57 115.44 C44.8 103.42, 29.9 94.7, 19 82.5 M57 115.44 C41.95 103.82, 28.27 90.26, 19 82.5 M19 82.5 C0.52 67.3, 0.9 64.64, 19 49.5 M19 82.5 C0.31 64.77, 2.08 64.51, 19 49.5 M19 49.5 C31.29 37.85, 48.8 27.07, 57 16.5 M19 49.5 C32.65 37.18, 43.84 26.85, 57 16.5 M57 16.5 C77.99 1.98, 76.29 0.37, 95 16.5 M57 16.5 C73.75 0.44, 77.71 -1.88, 95 16.5" stroke="#1e1e1e" stroke-width="2" fill="none"></path></g><g stroke-linecap="round" transform="translate(895.5901462849038 103.9926168801918) rotate(0 75.69442749023438 65.97222900390625)"><path d="M95 16.5 C105.37 25.68, 116.98 37.72, 132.39 49.5 M95 16.5 C110 29.57, 124.57 42.82, 132.39 49.5 M132.39 49.5 C153.06 65.03, 149.57 67.49, 132.39 82.5 M132.39 49.5 C153.1 67.09, 152.2 65.17, 132.39 82.5 M132.39 82.5 C125.69 88.4, 116.68 97.98, 95 115.44 M132.39 82.5 C123.94 88.91, 116.34 95.44, 95 115.44 M95 115.44 C75.88 131.81, 75.48 133.76, 57 115.44 M95 115.44 C76.29 132.09, 77.12 131.02, 57 115.44 M57 115.44 C43.61 104.93, 33.69 95.21, 19 82.5 M57 115.44 C45.32 105.57, 31.84 94.6, 19 82.5 M19 82.5 C0.29 67.69, 1.99 65.61, 19 49.5 M19 82.5 C2.26 64.38, 1.77 64.49, 19 49.5 M19 49.5 C33.09 38.29, 46.28 27.53, 57 16.5 M19 49.5 C27.49 42.12, 36.91 34.75, 57 16.5 M57 16.5 C74.2 1.11, 75.1 0.09, 95 16.5 M57 16.5 C75.67 -1.65, 76.92 1.53, 95 16.5" stroke="#1e1e1e" stroke-width="2" fill="none"></path></g><g stroke-linecap="round" transform="translate(758.096091995958 246.29441955613993) rotate(0 75.69442749023438 65.97222900390625)"><path d="M95 16.5 C107.69 27.06, 117.17 35.72, 132.39 49.5 M95 16.5 C105.31 25.97, 114.44 33.03, 132.39 49.5 M132.39 49.5 C153.29 67.37, 149.73 64.74, 132.39 82.5 M132.39 49.5 C153.58 64.19, 152.23 65.55, 132.39 82.5 M132.39 82.5 C117.83 93.79, 104.09 107.69, 95 115.44 M132.39 82.5 C121.41 92.36, 110.93 102.67, 95 115.44 M95 115.44 C77.57 133.85, 74.56 130.21, 57 115.44 M95 115.44 C76.73 131.19, 75.5 133.64, 57 115.44 M57 115.44 C43.1 102.86, 30.84 91.62, 19 82.5 M57 115.44 C43.66 103.99, 32.48 93.17, 19 82.5 M19 82.5 C-1.98 67.96, -1.58 67.01, 19 49.5 M19 82.5 C-0.5 66.44, -2.29 64.24, 19 49.5 M19 49.5 C28.01 41.38, 38.8 33.01, 57 16.5 M19 49.5 C27.86 41.08, 37.78 33.93, 57 16.5 M57 16.5 C74.51 1.74, 77.89 0.72, 95 16.5 M57 16.5 C75.74 -1.71, 74.41 0.44, 95 16.5" stroke="#1e1e1e" stroke-width="2" fill="none"></path></g><g stroke-linecap="round" transform="translate(1050.1403652005097 219.7900134533453) rotate(0 75.69442749023438 65.97222900390625)"><path d="M95 16.5 C105.92 29.18, 120.42 36.48, 132.39 49.5 M95 16.5 C108.6 28.52, 123.68 42.34, 132.39 49.5 M132.39 49.5 C150.39 65.66, 149.55 67.45, 132.39 82.5 M132.39 49.5 C151.71 63.77, 150.15 66.62, 132.39 82.5 M132.39 82.5 C121.59 91.27, 107.58 102.29, 95 115.44 M132.39 82.5 C122.88 89.39, 115.12 98, 95 115.44 M95 115.44 C74.69 133.61, 74.92 131.74, 57 115.44 M95 115.44 C74.13 133.4, 76.44 129.85, 57 115.44 M57 115.44 C46.41 103.43, 31.83 93.87, 19 82.5 M57 115.44 C48.32 109.03, 40.25 100.49, 19 82.5 M19 82.5 C-1.58 64.48, 0.83 67.18, 19 49.5 M19 82.5 C-0.2 65.54, 1.86 65.7, 19 49.5 M19 49.5 C31.84 40.1, 40.79 28.51, 57 16.5 M19 49.5 C34.28 36.8, 48.53 23.04, 57 16.5 M57 16.5 C76.02 0.64, 75.59 -1.4, 95 16.5 M57 16.5 C74.34 -2.17, 75.05 -0.02, 95 16.5" stroke="#1e1e1e" stroke-width="2" fill="none"></path></g><g stroke-linecap="round" transform="translate(701.204922374564 489.9910771770823) rotate(0 51.388885498046875 42.361114501953125)"><path d="M21.18 0 C40.18 1.09, 61.21 -1.1, 81.6 0 M21.18 0 C39.06 -1.26, 58.84 -0.58, 81.6 0 M81.6 0 C95.2 -0.03, 102.09 8.1, 102.78 21.18 M81.6 0 C93.63 2.09, 101.18 8.32, 102.78 21.18 M102.78 21.18 C101.34 36.78, 104.27 53.08, 102.78 63.54 M102.78 21.18 C103.49 34.09, 102.38 49.63, 102.78 63.54 M102.78 63.54 C102.95 77.25, 94.08 83, 81.6 84.72 M102.78 63.54 C102.41 76.45, 93.74 86.51, 81.6 84.72 M81.6 84.72 C70.54 83.67, 55.87 85, 21.18 84.72 M81.6 84.72 C64.41 83.95, 46.44 83.97, 21.18 84.72 M21.18 84.72 C5.49 85.5, 1.2 77.06, 0 63.54 M21.18 84.72 C8.09 84.14, 0.51 76.58, 0 63.54 M0 63.54 C-1.53 52.87, 0.36 39.99, 0 21.18 M0 63.54 C-0.43 47.88, -0.66 33.13, 0 21.18 M0 21.18 C-1.39 7.65, 7.98 -0.96, 21.18 0 M0 21.18 C0.05 8.55, 7.98 0.32, 21.18 0" stroke="#1e1e1e" stroke-width="2" fill="none"></path></g><g stroke-linecap="round" transform="translate(861.4614578312949 485.71739553645705) rotate(0 51.388885498046875 42.361114501953125)"><path d="M21.18 0 C36.9 -1.3, 55.6 -1.13, 81.6 0 M21.18 0 C37.54 0.94, 53.79 0.42, 81.6 0 M81.6 0 C95.35 -0.04, 103.09 6.73, 102.78 21.18 M81.6 0 C96.62 0.04, 104.73 5.62, 102.78 21.18 M102.78 21.18 C102.37 34.81, 103.18 46.7, 102.78 63.54 M102.78 21.18 C102.69 37.24, 103.43 52.6, 102.78 63.54 M102.78 63.54 C103.34 75.73, 97.08 85.68, 81.6 84.72 M102.78 63.54 C104.89 77.06, 95.78 82.54, 81.6 84.72 M81.6 84.72 C58.77 84, 36.6 83.46, 21.18 84.72 M81.6 84.72 C64.51 84.84, 47.91 84.95, 21.18 84.72 M21.18 84.72 C7.77 86.61, -0.52 79.63, 0 63.54 M21.18 84.72 C9.12 85.58, -0.01 76.06, 0 63.54 M0 63.54 C0.33 48.66, 1.93 34.51, 0 21.18 M0 63.54 C-0.12 54.66, -0.2 43.2, 0 21.18 M0 21.18 C-0.67 7.27, 8.81 -1.64, 21.18 0 M0 21.18 C1.34 5.62, 8.32 -1.41, 21.18 0" stroke="#1e1e1e" stroke-width="2" fill="none"></path></g><g stroke-linecap="round" transform="translate(1096.6681690616879 480.15329705084946) rotate(0 51.388885498046875 42.361114501953125)"><path d="M21.18 0 C46.47 -0.47, 68.97 0.75, 81.6 0 M21.18 0 C35.21 0.15, 50 -0.26, 81.6 0 M81.6 0 C97.51 -0.49, 103.31 6.29, 102.78 21.18 M81.6 0 C96.53 -1.93, 102.82 5.63, 102.78 21.18 M102.78 21.18 C104.11 31.85, 103.17 47.07, 102.78 63.54 M102.78 21.18 C102.22 31.94, 103.59 41.74, 102.78 63.54 M102.78 63.54 C102.75 77.23, 93.87 85.74, 81.6 84.72 M102.78 63.54 C104.98 75.55, 93.85 85.17, 81.6 84.72 M81.6 84.72 C58.62 86.24, 34.16 85.7, 21.18 84.72 M81.6 84.72 C59.92 84.58, 39.16 84.68, 21.18 84.72 M21.18 84.72 C7.22 83.35, 1.02 76.14, 0 63.54 M21.18 84.72 C7.73 85.09, 0.55 79.76, 0 63.54 M0 63.54 C-1.77 48.96, 0.11 36.73, 0 21.18 M0 63.54 C0.51 53.26, 0.6 41.3, 0 21.18 M0 21.18 C0.74 7.95, 7.07 1.62, 21.18 0 M0 21.18 C0.51 5.03, 6.27 1.82, 21.18 0" stroke="#1e1e1e" stroke-width="2" fill="none"></path></g><g stroke-linecap="round" transform="translate(598.897219918058 10) rotate(0 75.69442749023438 65.97222900390625)"><path d="M95 16.5 C109.91 29.59, 123.08 39.97, 132.39 49.5 M95 16.5 C106.05 24.57, 114.68 34.87, 132.39 49.5 M132.39 49.5 C153.1 64.44, 150.66 66.31, 132.39 82.5 M132.39 49.5 C153.39 65.02, 152.76 67.24, 132.39 82.5 M132.39 82.5 C117.95 95.11, 104.49 106.63, 95 115.44 M132.39 82.5 C124.2 90, 115.49 98.37, 95 115.44 M95 115.44 C76.78 132.6, 74.11 130.31, 57 115.44 M95 115.44 C75.75 132.24, 78.2 131.08, 57 115.44 M57 115.44 C48.13 107.46, 35.87 98.02, 19 82.5 M57 115.44 C44.14 103.53, 30.48 93.85, 19 82.5 M19 82.5 C-0.3 67.11, 0.64 66.78, 19 49.5 M19 82.5 C-0.92 64.79, 0.75 66.24, 19 49.5 M19 49.5 C32.49 37.23, 43.74 26.09, 57 16.5 M19 49.5 C30.04 38.99, 40.74 30.5, 57 16.5 M57 16.5 C75.54 1.97, 74.03 -0.06, 95 16.5 M57 16.5 C77.9 -0.65, 78.23 1.85, 95 16.5" stroke="#1e1e1e" stroke-width="2" fill="none"></path></g><g stroke-linecap="round"><g transform="translate(304.19886527943595 291.6820562414101) rotate(0 31.298856611975626 -28.68131552817607)"><path d="M0.61 1.15 C10.82 -8.42, 50.71 -48.9, 60.99 -58.51 M-0.53 0.7 C10.06 -8.65, 52.76 -47.65, 63.13 -57.48" stroke="#1e1e1e" stroke-width="2" fill="none"></path></g></g><mask></mask><g stroke-linecap="round"><g transform="translate(465.1266773680419 159.24352303535363) rotate(0 65.1879911834979 -36.574565913630465)"><path d="M0.52 0.53 C22.33 -11.93, 109.47 -61.29, 131.04 -73.68 M-0.66 -0.24 C21.02 -11.97, 108.81 -60.1, 130.41 -72.15" stroke="#1e1e1e" stroke-width="2" fill="none"></path></g></g><mask></mask><g stroke-linecap="round"><g transform="translate(756.0875591892411 79.81845375773923) rotate(0 82.15961320076667 27.111221339155804)"><path d="M0.55 0.8 C28.01 9.52, 137.56 44.06, 164.94 53.07 M-0.62 0.18 C26.74 8.93, 136.87 45.26, 164.38 54.05" stroke="#1e1e1e" stroke-width="2" fill="none"></path></g></g><mask></mask><g stroke-linecap="round"><g transform="translate(1028.704019697806 200.51434551520845) rotate(0 23.977752151180255 23.97920490050791)"><path d="M0.16 0.04 C8.09 8.12, 39.48 40.47, 47.32 48.37 M-0.42 -0.41 C7.7 7.53, 40.26 39.59, 48.38 47.63" stroke="#1e1e1e" stroke-width="2" fill="none"></path></g></g><mask></mask><g stroke-linecap="round"><g transform="translate(747.7169839284381 478.9910771770823) rotate(0 20.339924355027904 -63.46800384972141)"><path d="M-1.17 0.83 C5.31 -20.15, 32.56 -104.76, 39.6 -125.77 M0.41 0.22 C7.2 -21.16, 35.15 -106.54, 41.85 -127.76" stroke="#1e1e1e" stroke-width="2" fill="none"></path></g></g><mask></mask><g stroke-linecap="round"><g transform="translate(913.3981481911393 474.71739553645705) rotate(0 -18.258275016496896 -58.824615374472444)"><path d="M-0.54 0.91 C-6.89 -18.89, -31.16 -98.95, -37.42 -118.56 M1.37 0.35 C-5.11 -19.36, -31.2 -97.67, -37.89 -117.5" stroke="#1e1e1e" stroke-width="2" fill="none"></path></g></g><mask></mask><g stroke-linecap="round"><g transform="translate(1153.968416062325 469.15329705084946) rotate(0 -12.771843968413293 -55.315026728275996)"><path d="M-0.12 0.2 C-4.51 -18.36, -21.27 -92.19, -25.42 -110.83 M-1.65 -0.74 C-5.75 -19.14, -19.18 -90.94, -23.26 -109.28" stroke="#1e1e1e" stroke-width="2" fill="none"></path></g></g><mask></mask><g stroke-linecap="round"><g transform="translate(883.477296454274 274.93807653561316) rotate(0 24.260268639196624 -29.242570583992176)"><path d="M0.87 0.12 C9.12 -9.65, 40.79 -48.98, 48.66 -58.6 M-0.14 -0.86 C7.99 -10.46, 39.04 -47.45, 47.47 -57.24" stroke="#1e1e1e" stroke-width="2" fill="none"></path></g></g><mask></mask></svg>